<svg version="1.1" id="Layer_1" xmlns="http://www.w3.org/2000/svg" xmlns:xlink="http://www.w3.org/1999/xlink" stroke="transparent" x="0px" y="0px"
	 width="100%" viewBox="0 0 498 497" enable-background="new 0 0 498 497" xml:space="preserve">
<path fill="#F4AB2B" opacity="1.000000" stroke="none" 
	d="
M164.646469,332.695251 
	C157.781372,339.372589 151.008392,346.148010 144.028397,352.702972 
	C134.814011,361.356384 125.961655,370.514160 116.001648,378.225494 
	C102.667076,388.549591 87.007217,390.287506 70.807968,386.595520 
	C50.904255,382.059296 36.803535,370.067017 28.531673,351.606171 
	C18.937599,330.194427 20.968552,309.296936 35.880135,291.330566 
	C48.001785,276.725616 62.128979,263.764130 75.587387,250.294281 
	C101.104897,224.755081 126.811485,199.404922 152.371628,173.908173 
	C160.059189,166.239685 167.080399,157.846069 175.195053,150.676743 
	C186.347275,140.823746 199.582062,133.988556 213.913391,130.292587 
	C225.400711,127.330078 237.363037,124.963730 249.160843,124.736633 
	C267.847046,124.376953 285.961090,128.538818 302.912048,136.977173 
	C314.633972,142.812454 325.125122,150.313965 334.635132,159.925552 
	C334.448303,160.947769 334.285889,161.441055 333.958344,161.769821 
	C314.341858,181.459457 294.671753,201.095795 275.093201,220.823029 
	C250.818909,245.281693 226.607437,269.802795 202.392471,294.320251 
	C189.784241,307.085999 177.226837,319.901978 164.646469,332.695251 
z"/>
<path fill="#2B8BEA" opacity="1.000000" stroke="none" 
	d="
M164.894104,332.971710 
	C177.226837,319.901978 189.784241,307.085999 202.392471,294.320251 
	C226.607437,269.802795 250.818909,245.281693 275.093201,220.823029 
	C294.671753,201.095795 314.341858,181.459457 333.958344,161.769821 
	C334.285889,161.441055 334.448303,160.947769 334.809601,160.206757 
	C345.509949,149.556030 356.106384,139.248047 366.663055,128.899506 
	C384.058655,111.846825 404.756927,106.659477 427.569946,114.327026 
	C450.158295,121.919060 464.534241,138.248413 468.654053,161.932312 
	C472.132080,181.927017 466.248169,199.745346 451.817749,214.281937 
	C416.700928,249.657074 381.475952,284.924866 346.284393,320.225769 
	C338.907776,327.625275 332.081757,335.725739 323.965698,342.204987 
	C306.048737,356.508514 285.228577,364.397858 262.434662,366.882172 
	C237.472305,369.602875 213.786484,364.939850 192.010544,352.658142 
	C182.447250,347.264435 174.061920,339.782135 164.894104,332.971710 
z"/>
</svg>